<?xml version="1.0" encoding="utf-8"?>
<!-- Generator: Adobe Illustrator 19.0.0, SVG Export Plug-In . SVG Version: 6.00 Build 0)  -->
<svg version="1.1" id="Livello_1" xmlns:sketch="http://www.bohemiancoding.com/sketch/ns"
	 xmlns="http://www.w3.org/2000/svg" xmlns:xlink="http://www.w3.org/1999/xlink" x="0px" y="0px" width="36px" height="55px"
	 viewBox="-13 5 36 55" style="enable-background:new -13 5 36 55;" xml:space="preserve">
<style type="text/css">
	.st0{fill:#FFFFFF;}
</style>
<title>trash_delete_</title>
<description>Created with Sketch (http://www.bohemiancoding.com/sketch)</description>
<g sketch:type="MSPage">
	<path sketch:type="MSShapeGroup" class="st0" d="M-6,23.8c0,0-0.6,0-0.6,0.6c0,0.6,0.6,0.6,0.6,0.6h21.9c0,0,0.6,0,0.6-0.6
		c0-0.6-0.6-0.6-0.6-0.6H-6z M-3.4,49l-1.9-22.6h1.3l1.9,21.3h14.2L14,26.4h1.3L13.3,49H-3.4z M3,20.6c-1.3,0-1.3,1.3-1.3,1.3v0.6H3
		v-0.6h3.9v0.6h1.3v-0.6c0,0,0-1.3-1.3-1.3H3z M-0.5,26.4l0.9,19.4h1.3L0.8,26.4H-0.5z M9.2,26.4l-1,19.4h1.3l1-19.4H9.2z M4.3,26.4
		v19.4h1.3V26.4H4.3z"/>
</g>
</svg>
